<?xml version="1.0" encoding="UTF-8" standalone="no"?>
<svg viewBox="0 0 400 250" xmlns="http://www.w3.org/2000/svg">
  <!-- Background -->
  <rect x="0" y="0" width="400" height="250" fill="#f5f5f5" rx="8" ry="8"/>
  
  <!-- Browser window -->
  <rect x="20" y="20" width="360" height="210" fill="white" stroke="#ddd" stroke-width="2" rx="6" ry="6"/>
  
  <!-- Browser header -->
  <rect x="20" y="20" width="360" height="30" fill="#f0f0f0" stroke="#ddd" stroke-width="2" rx="6" ry="6"/>
  <circle cx="40" cy="35" r="5" fill="#ff6b6b"/>
  <circle cx="60" cy="35" r="5" fill="#ffd93d"/>
  <circle cx="80" cy="35" r="5" fill="#6bff6b"/>
  
  <!-- Address bar -->
  <rect x="100" y="25" width="220" height="20" fill="white" stroke="#ddd" stroke-width="1" rx="10" ry="10"/>
  <text x="110" y="39" font-family="Arial" font-size="10" fill="#666">jobs.example.com/software-engineer</text>
  
  <!-- Job content -->
  <rect x="40" y="70" width="320" height="50" fill="#4CAF50" rx="4" ry="4"/>
  <text x="55" y="95" font-family="Arial" font-size="12" fill="white" font-weight="bold">Senior Software Engineer</text>
  <text x="55" y="110" font-family="Arial" font-size="10" fill="white">TechCorp Inc. • Boston, MA • Remote</text>
  
  <!-- Job description -->
  <rect x="40" y="130" width="320" height="80" fill="#f9f9f9" rx="4" ry="4"/>
  <text x="55" y="150" font-family="Arial" font-size="10" fill="#333" font-weight="bold">Job Description</text>
  <line x1="55" y1="155" x2="345" y2="155" stroke="#ddd" stroke-width="1"/>
  <text x="55" y="170" font-family="Arial" font-size="8" fill="#333">We are seeking a passionate Senior Software Engineer with</text>
  <text x="55" y="185" font-family="Arial" font-size="8" fill="#333">experience in full-stack development...</text>
  
  <!-- CoverMe icon indicator -->
  <circle cx="340" cy="45" r="14" fill="#4CAF50" opacity="0.2"/>
  <path d="M340 38 L340 52 M333 45 L347 45" stroke="#4CAF50" stroke-width="2"/>
</svg>